<?xml version="1.0" encoding="UTF-8" standalone="no"?>
<!-- Created with Inkscape (http://www.inkscape.org/) -->

<svg
   version="1.1"
   id="svg2"
   width="1180"
   height="501.60001"
   viewBox="0 0 1180 501.60001"
   sodipodi:docname="auto.svg"
   inkscape:version="1.2.2 (732a01da63, 2022-12-09)"
   xmlns:inkscape="http://www.inkscape.org/namespaces/inkscape"
   xmlns:sodipodi="http://sodipodi.sourceforge.net/DTD/sodipodi-0.dtd"
   xmlns="http://www.w3.org/2000/svg"
   xmlns:svg="http://www.w3.org/2000/svg">
  <defs
     id="defs6" />
  <sodipodi:namedview
     id="namedview4"
     pagecolor="#ffffff"
     bordercolor="#666666"
     borderopacity="1.0"
     inkscape:showpageshadow="2"
     inkscape:pageopacity="0.0"
     inkscape:pagecheckerboard="0"
     inkscape:deskcolor="#d1d1d1"
     showgrid="false"
     inkscape:zoom="1.140678"
     inkscape:cx="472.08767"
     inkscape:cy="130.18574"
     inkscape:window-width="2560"
     inkscape:window-height="1361"
     inkscape:window-x="-9"
     inkscape:window-y="-9"
     inkscape:window-maximized="1"
     inkscape:current-layer="g8" />
  <g
     inkscape:groupmode="layer"
     inkscape:label="Image"
     id="g8">
    <path
       style="fill:#000000;stroke-width:0.8"
       d="m 735.96892,40.808806 c 4.07,0.0048 8.79134,0.238653 10.49186,0.51958 8.70142,1.437477 -5.69989,-15.051089 -18.99935,-21.753023 -8.64594,-4.356915 -8.58073,-4.605277 -2.52805,9.627843 0.56208,1.321764 1.27772,3.567635 1.5903,4.990827 0.31258,1.423191 0.90064,2.792994 1.30679,3.044007 0.40615,0.251014 0.73845,1.155142 0.73845,2.009174 0,1.424502 0.61136,1.553492 7.4,1.561592 z m 282.19998,10.378512 c 4.18,0.379766 8.5,0.858201 9.6,1.063189 2.6764,0.498757 8.7872,-0.590372 7.2,-1.283265 -21.9581,-9.58594 -25.7046,-10.350104 -54.39998,-11.095864 -42.1353,-1.095048 -106.23925,-0.415678 -112.8,1.195449 -3.90309,0.958483 -9.98861,1.318476 -24.4,1.443399 -19.2,0.166432 -19.2,0.166432 4,0.763816 27.44794,0.706767 81.60497,2.739271 103.6,3.888092 30.31012,1.583125 59.69198,3.343057 67.19998,4.025184 z m -243.65474,7.690668 c 13.7683,1.329378 12.1575,1.399006 16.44738,-0.710961 3.78544,-1.861865 12.66736,-12.270593 11.44064,-13.407298 -0.66211,-0.613519 -47.16523,-1.561092 -47.75328,-0.973045 -0.18544,0.185442 0.53071,2.299566 1.59143,4.698054 1.06073,2.398487 1.92859,4.881377 1.92859,5.517531 0,2.297911 4.95492,3.775943 16.34524,4.875719 z m -235.54524,1.096779 c 0,2.425236 0,2.425236 7,2.26818 18.14176,-0.407039 107.35849,-1.22648 144.66666,-1.328738 22.91668,-0.06281 41.93251,-0.384206 42.25742,-0.714206 0.32491,-0.33 1.73491,-0.992261 3.13334,-1.471692 2.34257,-0.803123 2.03803,-0.906297 -3.87157,-1.311613 -9.79855,-0.672044 -11.70455,-1.753139 -13.46763,-7.638925 -0.80071,-2.673096 -1.87488,-5.38502 -2.38703,-6.026497 -1.66294,-2.082852 -100.93461,-2.775536 -99.63543,-0.695224 2.39363,3.832814 -3.30432,6.066633 -18.93405,7.422885 -20.62166,1.789424 -35.44632,-1.515289 -32.39272,-7.220989 0.45706,-0.854017 0.83101,-1.756426 0.83101,-2.005352 0,-3.14242 -21.04697,-0.0093 -22.48654,3.347407 -2.74137,6.392178 -4.71346,12.824903 -4.71346,15.374764 z m -343.93864,3.554121 c 2.70544,2.276457 4.4092,2.40213 16.33864,1.205166 3.52,-0.353185 11.514,-1.021038 17.76448,-1.484117 12.28128,-0.909885 16.26424,-2.120753 17.75768,-5.398643 1.16128,-2.548623 1.11176,-4.258336 -0.12216,-4.221166 -1.8828,0.05672 -30.58952,2.272036 -42.4,3.272029 -13.26808,1.123413 -14.68448,2.128482 -9.33864,6.626731 z m 99.32984,2.342658 v -5e-6 c 4.0748,0.254738 8.4888,0.643518 9.8088,0.863956 1.32,0.220442 2.76,0.25288 3.2,0.07209 0.77384,-0.317964 37.69992,-1.075987 137.2,-2.816454 99.5769,-1.741812 91.00162,-1.181981 92.00316,-6.006367 0.48358,-2.329379 1.9407,-6.991807 3.23804,-10.360952 1.29734,-3.369145 2.3588,-6.456806 2.3588,-6.861471 0,-0.443541 -36.3005,-0.724635 -91.4,-0.707765 -91.4,0.02799 -91.4,0.02799 -85.4,2.191938 5.67187,2.045606 6.50314,2.134596 15.2,1.627197 13.79308,-0.804725 106.5315,-1.814946 109.03066,-1.187696 6.9268,1.738516 -0.38248,2.117886 -42.03066,2.181476 -60.1876,0.0919 -74.31767,0.621081 -76.75361,2.874458 -6.96583,6.443806 -43.16927,8.396655 -50.38847,2.718009 -1.84904,-1.45449 -2.72128,-1.494068 -16.7044,-0.758011 -17.12432,0.901403 -17.63672,1.119983 -17.80704,7.595721 -0.20576,7.825456 0.0122,8.046715 8.44472,8.573876 z m 500.95498,3.754643 v -6e-6 c 0.86752,0.867512 12.52597,0.863376 18.05382,-0.0064 1.98,-0.311541 6.3,-1.869488 9.6,-3.462104 7.16705,-3.458894 20.40495,-7.335298 29.05789,-8.508909 17.18435,-2.33074 127.30533,1.233128 181.14209,5.862341 4.6038,0.395859 4.2979,-0.253443 -1.8,-3.820537 -3.4205,-2.000942 -5.2,-3.546732 -5.2,-4.517204 0,-2.074399 0.7201,-2.007401 -51.19998,-4.763437 -7.7,-0.408732 -21.02,-1.128016 -29.6,-1.598408 -8.58,-0.470392 -26.04,-1.218562 -38.8,-1.662601 -12.76,-0.444039 -32.74,-1.143575 -44.4,-1.554525 -47.75358,-1.683046 -55.59195,-1.280414 -58.51256,3.005604 -6.84571,10.046113 -8.87278,11.637775 -18.10914,14.219414 -5.56723,1.556085 -7.12164,2.780586 -3.52973,2.780586 2.67667,0 12.13525,2.863823 13.29761,4.026186 z m -113.14618,9.5794 c 21.52447,2.597839 43.8282,-3.436713 44.74689,-12.106833 0.0495,-0.467505 -162.45003,0.05102 -162.99687,0.520115 -0.26862,0.230414 -0.69437,3.633243 -1.09869,8.781133 -0.29591,3.76752 -1.41059,3.684784 27.34867,2.030052 18.65968,-1.073627 81.03534,-0.547817 92,0.775533 z m -181.69081,5.569071 c 6.16363,1.180528 6.2809,1.142568 6.71855,-2.174656 0.21768,-1.65 0.84968,-5.435819 1.40443,-8.412929 1.30436,-6.999936 5.78638,-6.408652 -40.94876,-5.4021 -89.8304,1.934714 -81.51226,1.579929 -82.22207,3.506933 -3.1684,8.601696 -3.92293,8.353632 24.14425,7.937792 33.1448,-0.49107 75.72534,1.637856 90.9036,4.54496 z m 97.69081,5.669544 c 26.25415,1.224024 57.27322,0.795656 63.2,-0.872776 2.86,-0.805112 6.1,-1.510904 7.2,-1.568344 3.21164,-0.167808 -0.2419,-1.277008 -6,-1.927064 -5.44769,-0.615016 -13.66822,-3.307168 -15.89024,-5.20392 -2.75236,-2.349452 -71.70976,-1.52056 -71.70976,0.861976 0,5.514928 6.42784,7.928176 23.2,8.710128 z m -190,1.505848 c 24.91361,0.973 84.32671,1.052544 81.2,0.108696 -1.1,-0.332048 -7.49817,-0.849792 -14.21815,-1.150544 -15.41301,-0.689808 -25.59337,-2.938664 -34.58185,-7.639184 -4.83439,-2.528136 -54.46664,-2.619416 -57.06314,-0.104936 -6.54787,6.34104 -2.68268,7.717968 24.66314,8.785968 z M 523.47837,100.2 c -0.53993,2.2 -0.53993,2.2 4.28707,2.2 5.44174,0 5.34062,0.096 10.02045,-9.51587 1.37901,-2.832328 2.78719,-4.740952 3.34229,-4.530056 0.53837,0.204552 0.78355,-0.09345 0.55877,-0.679208 -0.34388,-0.896136 1.88103,-5.5404 3.86839,-8.074864 2.38319,-3.039264 11.01358,-15.006845 11.01358,-15.272305 0,-0.496563 -15.35855,-0.370681 -17.2661,0.141518 -2.94194,0.789942 -12.60274,22.603507 -15.82445,35.730785 z m -51.8866,1.80067 c 32.10241,1.70188 31.99301,1.72283 33.15463,-6.346396 0.21741,-1.510232 -0.82487,-1.550208 -45.37748,-1.740408 -25.08,-0.10708 -49.92,-0.378712 -55.2,-0.603632 -6.71613,-0.286096 -8.63871,-0.191136 -6.4,0.316128 5.17637,1.172888 23.41321,3.989928 31.2,4.819456 3.96,0.421856 10.08,1.124424 13.6,1.561252 3.52,0.43684 16.58028,1.33396 29.02285,1.9936 z m 37.77715,-0.66308 c 0,1.86814 9.69486,2.89246 10.74541,1.13532 0.1555,-0.2601 1.07497,-3.172908 2.04325,-6.472908 2.35035,-8.010224 7.72956,-21.797415 10.54393,-27.024653 2.27457,-4.224652 2.27457,-4.224652 -7.52901,-4 -9.80358,0.224652 -9.80358,0.224652 -11.20496,7.024652 -1.72783,8.384033 -4.59862,26.698705 -4.59862,29.337589 z m 103.2,16.29866 c 0,1.598 2.4951,1.91625 8,1.02038 13.58318,-2.21052 21.6749,-3.67292 28,-5.0604 4.18,-0.91692 9.22,-1.98821 11.2,-2.38062 1.98,-0.39242 7.2,-1.61871 11.6,-2.7251 4.4,-1.10639 15.92,-3.98821 25.6,-6.40404 9.68,-2.415836 23.18,-5.802284 30,-7.525444 6.82,-1.72316 16,-3.936816 20.4,-4.919232 4.4,-0.982416 9.08,-2.0948 10.4,-2.471976 8.73279,-2.49528 30.36061,-5.638224 42.09583,-6.117344 11.30305,-0.461472 11.65306,-0.527464 10.42221,-1.964991 -2.33834,-2.730985 -22.57372,-1.536205 -43.31804,2.557679 -18.63251,3.677112 -28.51514,5.973848 -64,14.873656 -47.47046,11.905852 -57.82172,14.261042 -74.8,17.018912 -5.72,0.92913 -11.57,1.87955 -13,2.11205 -1.9024,0.3093 -2.6,0.84229 -2.6,1.98647 z m 495.59998,1.57326 c 1.32,0.33335 3.1174,0.89963 3.9942,1.2584 0.9861,0.40351 0.036,-1.16332 -2.4909,-4.1078 -2.2468,-2.61806 -4.7542,-5.57011 -5.572,-6.56011 -0.8178,-0.99 -2.0109,-1.8 -2.6515,-1.8 -0.6405,0 -6.0505,-4.78426 -12.0222,-10.631694 -18.8928,-18.499745 -43.2902,-36.568305 -49.377,-36.568305 -2.1654,0 -0.9621,1.354887 4.7194,5.313916 12.9464,9.021428 38.5699,30.597285 52.6,44.290953 5.1783,5.05412 9.3205,8.43101 10.8,8.80464 z m -721.99998,7.18098 c 44.34342,0.941 42.0169,0.92594 42.66666,0.27618 2.962,-2.96199 1.29561,-3.2184 -24.46666,-3.76472 -37.9308,-0.80436 -91.13128,-3.18855 -93.77344,-4.20247 -1.51184,-0.58012 -1.62904,1.24431 -0.20512,3.19167 1.4036,1.91945 27.65504,3.47813 75.77856,4.49934 z m 62.8,-1.19049 c 0,2.55991 68.14928,2.32962 106.17364,-0.35877 37.5991,-2.65833 37.42636,-2.63508 37.42636,-5.03907 0,-1.51189 -0.34627,-1.5902 -5,-1.13085 -6.21554,0.61352 -23.92165,1.78664 -45.4,3.00797 -9.02,0.51291 -33.68,1.1549 -54.8,1.42664 -37.70198,0.4851 -38.4,0.52317 -38.4,2.09408 z m 662.27478,-11.43495 c 1.6157,4.25153 14.9252,18.67358 14.9252,16.17281 0,-2.39031 -9.207,-20.37044 -14.5257,-28.36684 -18.321,-27.544818 -33.5229,-39.862209 -55.7389,-45.162667 -7.2113,-1.720526 -8.6646,-1.39592 -2.5354,0.566282 23.5901,7.552045 48.4234,31.920007 57.8748,56.790415 z M 660.26892,130.3 c 0.48102,2.40508 1.38452,3.18128 2.18861,1.88023 1.29887,-2.1016 15.17276,-7.56349 21.97537,-8.65127 4.11909,-0.65867 4.25235,-0.85692 3.62967,-5.39986 -0.59769,-4.36061 -1.60772,-4.88469 -6.55183,-3.39955 -12.45136,3.74015 -20.22332,5.37635 -17.58843,3.70275 0.74436,-0.4728 3.98436,-1.54444 7.2,-2.38143 3.21563,-0.837 10.16661,-2.65379 15.44661,-4.03732 5.28,-1.38353 14.73,-3.82218 21,-5.41923 9.68352,-2.46651 11.4,-3.13422 11.4,-4.43461 0,-1.12857 -0.36745,-1.38988 -1.39822,-0.99435 -0.76901,0.29511 -3.19901,0.91499 -5.4,1.37755 -3.62297,0.76138 -12.40218,2.96168 -28.04608,7.02908 -22.60078,5.8762 -26.20051,9.00397 -23.8557,20.72801 z m 448.29998,0.77328 c 3.2511,1.99799 3.743,2.08282 4.2139,0.72672 0.9528,-2.74434 -22.9661,-26.90301 -42.1773,-42.599998 -2.154,-1.76 -6.1034,-5.020096 -8.7765,-7.244656 -18.026,-15.001497 -17.9733,-14.978485 -37.3814,-16.337254 -6.7533,-0.4728 -17.1387,-1.212523 -23.0787,-1.643827 -5.93998,-0.431305 -18.89998,-1.134909 -28.79998,-1.563568 -9.9,-0.428657 -26.64,-1.154796 -37.2,-1.613641 -35.75747,-1.553706 -80.60051,-1.423808 -88,0.25491 -14.87969,3.375747 -30.0478,9.306215 -23.97801,9.374975 5.79702,0.06567 59.00795,5.643943 64.37801,6.748948 1.1,0.226349 5.06,0.761976 8.8,1.190283 6.17558,0.707232 16.42779,2.186126 36.4,5.25075 13.43312,2.06124 29.66806,4.839088 42,7.186336 3.74,0.711872 9.5,1.797696 12.8,2.41296 3.3,0.615256 9.42,1.867696 13.59998,2.7832 4.18,0.915504 10.12,2.185696 13.2,2.822648 5.2978,1.0956 9.5549,2.088504 20.2,4.711314 28.3744,6.99103 58.8965,18.38097 73.8,27.5399 z m 29.0467,17.0245 c 1.8242,2.92087 1.8652,2.7853 3.4547,-11.41363 1.6794,-15.00136 -17.9927,-47.554572 -39.9871,-66.170158 -18.8341,-15.940761 -43.1276,-25.096754 -76.7854,-28.939701 -7.893,-0.901197 -10.4099,-0.643535 -6.8398,0.70022 1.051,0.395602 6.0509,2.232017 11.1109,4.080924 5.06,1.848906 10.2904,3.996212 11.6232,4.771792 1.3327,0.77558 4.9662,1.646492 8.0743,1.935362 25.3732,2.358192 44.1366,15.869025 64.6532,46.554365 8.7026,13.016036 17.9457,32.833516 17.0002,36.449096 -0.3175,1.21434 0.5716,2.93473 3.1579,6.10989 1.9799,2.43078 4.0219,5.09561 4.5379,5.92184 z M 684.43153,194.2958 c 2.31888,0.49732 4.38973,0.9042 4.60188,0.9042 2.61469,0 4.5535,-38.68252 2.68649,-53.6 -1.41766,-11.32721 -2.28835,-16.25737 -2.99612,-16.96513 -1.71059,-1.7106 -21.76943,5.20469 -27.17435,9.36836 -0.12072,0.093 0.36282,2.29031 1.07453,4.88292 3.70076,13.48123 7.90193,33.19301 10.34993,48.56167 0.54628,3.42954 3.36027,5.11141 11.45764,6.84798 z m -6.8846,26.05884 c 2.13133,1.49284 4.96171,1.44418 18.52404,-0.31846 10.85753,-1.4111 12.49795,-2.20113 12.49795,-6.01894 0,-0.92233 1.47007,-6.70352 3.26682,-12.8471 4.37068,-14.94455 5.48832,-19.09118 6.6762,-24.77014 0.55222,-2.64 1.22748,-5.52 1.50058,-6.4 3.55186,-11.44512 3.30794,-60.13599 -0.32042,-63.95833 -0.71376,-0.75192 -2.33111,-0.47505 -13.12318,2.24648 -2.64,0.66575 -6.42,1.60186 -8.4,2.08025 -8.35257,2.01807 -8.66463,2.45266 -6.34161,8.8316 8.81764,24.21292 3.24691,89.6 -7.63358,89.6 -6.6311,0 -11.37345,8.24397 -6.6468,11.55464 z M 46.168916,243.41578 c 0,5.52778 1.5486,0.42705 1.9479,-6.41613 1.9014,-32.58009 6.0096,-59.91865 13.5547,-90.19965 0.6578,-2.64 1.6004,-6.42 2.0946,-8.4 1.4584,-5.84235 6.4706,-20.85765 8.512,-25.49954 3.0121,-6.84923 2.5419,-6.93247 -6.2496,-1.10653 -6.2346,4.1315 -7.137,5.71514 -11.0596,19.40607 -0.9454,3.3 -2.0328,6.9 -2.4163,8 -0.3835,1.1 -1.4127,5.06 -2.2873,8.8 -0.8745,3.74 -2.0164,8.6 -2.5377,10.8 -3.6133,15.25054 -7.0588,38.614 -8.7302,59.2 -0.7901,9.7308 -0.9713,27.73609 -0.2496,24.8 1.1896,-4.83975 7.4211,-4.32268 7.4211,0.61578 z m 1086.258784,-0.0615 c 1.2839,0.1499 2.4853,1.01424 3.082,2.2172 3.3485,6.75152 0.6257,-24.42307 -4.8537,-55.57153 -2.5482,-14.48504 -3.0244,-17.01116 -4.0727,-21.6 -4.5098,-19.74321 -6.3421,-27.26896 -6.7466,-27.71009 -0.8345,-0.90998 -4.3011,-1.71464 -3.7843,-0.87838 0.9098,1.47198 3.3683,18.70925 7.6719,53.78847 1.1787,9.60808 4.0399,44.41536 4.0425,49.17801 0,3.87139 0.036,3.92912 1.2795,2.15432 0.8892,-1.26951 1.9167,-1.74902 3.3814,-1.578 z m -406.68228,53.60924 c 2.98171,12.78148 3.90892,-0.99599 1.55192,-23.06013 -4.19388,-39.25928 -1.17764,-62.07403 9.51215,-71.94937 8.21798,-7.59187 9.57661,-14.52745 7.77961,-39.71369 -1.17961,-16.53319 -5.30176,-41.46757 -6.946,-42.01565 -0.99163,-0.33054 -4.27418,6.87033 -4.27418,9.37617 0,0.93736 -0.35601,2.36949 -0.79113,3.18252 -0.43511,0.81302 -1.1539,8.61936 -1.59729,17.34741 -0.95914,18.87995 -2.00976,30.3691 -3.57265,39.06917 -4.8172,26.81556 -6.05391,38.87443 -6.04591,58.93068 0.007,16.86335 1.93453,38.33523 4.38348,48.83289 z m -7.80496,12.42573 c 1.42846,4.1893 1.42846,4.1893 6.02846,4.2 5.52626,0.0129 6.15465,-2.3788 2.57305,-9.79321 -7.22893,-14.96494 -8.78742,-65.43013 -3.06959,-99.39609 6.46757,-38.41978 7.60501,-67.41409 3.51498,-89.6 -1.9443,-10.54665 -2.02918,-10.8 -3.61844,-10.8 -2.05246,0 -2.20092,1.89547 -0.79431,10.14915 1.5775,9.26067 1.84775,37.35187 0.44494,46.25085 -1.49156,9.46202 -4.34813,23.15826 -5.66425,27.15803 -4.40352,13.38259 -5.77064,24.04493 -2.71549,21.17846 3.72867,-3.4984 7.41842,2.89899 4.97505,8.62587 -2.0058,4.70129 -6.37337,6.91955 -7.556,3.83764 -0.81149,-2.1147 -1.73331,-1.29095 -2.29841,2.05391 -0.68028,4.02653 -0.2167,4.57189 2.00108,2.35412 1.55669,-1.5567 1.89525,-1.61247 3.46425,-0.5707 3.95054,2.62307 3.49329,10.22748 -0.8344,13.87683 -1.93589,1.63245 -1.97056,1.80302 -0.72732,3.57801 1.602,2.28718 1.69001,6.27616 0.18392,8.33588 -0.99607,1.36219 -0.91328,1.72688 0.73969,3.25881 2.95109,2.73498 4.00328,7.35598 2.49623,10.96285 -1.75149,4.19194 -3.4598,4.58208 -6.27367,1.43282 -2.30933,-2.5846 -2.30933,-2.5846 -1.81048,1.66644 0.73291,6.24569 1.07361,6.95222 2.22905,4.62256 2.54758,-5.13652 7.39163,-1.95583 8.2661,5.42766 0.76513,6.46043 -4.19928,9.69454 -6.96076,4.53464 -1.48129,-2.76781 -1.6864,-1.99453 -0.76279,2.87567 0.97092,5.11964 1.28263,5.52789 2.7199,3.56231 0.95813,-1.31032 1.28336,-1.36352 2.44448,-0.39988 4.89722,4.06486 4.90281,15.78603 0.006,13.90694 -1.56728,-0.60142 -1.62371,-0.98049 0.99873,6.71043 z m -13.72596,2.81071 c 1.52678,1.65 2.86111,2.96272 2.96519,2.91732 0.10408,-0.0455 1.53923,-0.44124 3.18923,-0.87948 3.82094,-1.01483 3.91586,-0.59336 -2.23165,-9.90956 -6.07888,-9.21223 -6.84731,-11.30704 -4.71867,-12.86354 2.00206,-1.46394 2.71374,-1.10994 5.75032,2.86026 3.0511,3.98916 3.1413,3.51168 0.95794,-5.07052 -0.90312,-3.54997 -1.90477,-7.53448 -2.22588,-8.85448 -0.6355,-2.61249 -1.76653,-2.90562 -19.5693,-5.0718 -12.72217,-1.548 -18.39879,5.66858 -8.36276,10.6314 14.50692,7.17368 18.80722,11.47268 20.95002,20.94369 0.28579,1.26319 1.7688,3.64671 3.29556,5.29671 z m -666.741384,8.8 h 0.01 c 2.5917,8.59147 2.8936,7.42123 1.0832,-4.2 -6.6285,-42.5174 -6.6304,-94.64955 -0.01,-137.50235 1.579,-10.22094 1.2216,-11.86854 -0.9739,-4.48928 -8.9624,30.12378 -9.0241,116.62323 -0.1044,146.19163 z m 651.495804,31 h 6e-5 c 0.77967,1.26153 3.25378,0.93681 5.26388,-0.69087 3.70986,-3.00405 2.28724,-33.73341 -1.73,-37.36897 -10.02338,-9.07104 -20.86746,18.92368 -12.35988,31.90788 3.06105,4.67176 10.826,6.80136 10.826,2.96911 0,-0.44943 0.37266,-0.81715 0.82814,-0.81715 0.56142,0 0.55236,0.5152 -0.0282,1.6 -0.47096,0.88 -1.40487,1.6 -2.07536,1.6 -0.67044,0 -0.99658,0.36 -0.72464,0.8 z m 427.62838,3.8 c -0.016,0.55 0.2628,1 0.6187,1 2.7653,0 3.4101,-1.9752 9.2718,-28.4 2.7539,-12.41482 6.6672,-36.46902 8.4598,-52 2.6897,-23.30396 2.9012,-26.80001 1.6213,-26.80001 -0.44,0 -0.8,0.52734 -0.8,1.17186 0,2.88733 -6.3149,3.12444 -7.4529,0.27984 -0.2314,-0.57843 -0.4502,0.56831 -0.4861,2.54831 -0.2693,14.84736 -6.1567,69.96431 -10.0408,94 -0.6399,3.96 -1.1762,7.65 -1.1918,8.2 z M 36.100516,349.21213 c 3.7214,6.80484 7.8747,13.08225 7.4023,11.18788 -0.2194,-0.88 -1.1513,-3.58 -2.071,-6 -14.0176,-36.88742 -16.9099,-135.45898 -5.6101,-191.20001 2.2759,-11.22704 5.7894,-23.36441 7.3449,-25.3731 0.4151,-0.53521 0.6116,-1.39902 0.4381,-1.91959 -0.5656,-1.69673 -8.5754,12.10648 -11.1953,19.29269 -3.6186,9.92542 -4.0944,12.74559 -7.8296,46.4 -2.5675,23.13309 -2.9523,62.82401 -0.8143,84.00001 0.422,4.18 1.1636,11.74 1.648,16.8 2.3207,24.23796 5.1719,36.72734 10.687,46.81212 z m 746.868404,19.98199 c 9.01706,2.62406 8.33215,2.95274 10.33114,-4.95767 0.97797,-3.87004 2.09827,-8.29644 2.48955,-9.83644 3.39256,-13.35255 6.86425,-35.3534 9.27852,-58.8 1.36998,-13.30481 2.4916,-72.40254 1.37398,-72.39554 -1.14435,0.008 -6.98622,1.63081 -8.67319,2.40994 -0.88,0.40643 -3.94,1.50111 -6.8,2.43263 -19.98624,6.50962 -30.80001,12.96197 -34.78476,20.75532 -6.17854,12.08397 -6.70769,97.14339 -0.66686,107.19765 1.12358,1.87006 7.56176,7.2 8.69708,7.2 0.282,0 1.64714,0.50661 3.03364,1.12581 1.38649,0.6192 4.6809,1.73216 7.3209,2.47324 2.64,0.74108 6.42,1.81886 8.4,2.39506 z m -99.09799,4.85864 c 3.99185,2.06426 10.66465,0.25677 8.18954,-2.21834 -1.18952,-1.18948 -1.08572,-1.28191 1.30711,-1.16328 9.62292,0.47709 14.30276,-45.57716 6.40903,-63.07113 -0.39708,-0.88 -1.50916,-3.49832 -2.47129,-5.81847 -1.7553,-4.23289 -5.75558,-8.50815 -7.43711,-7.94833 -1.79154,0.59643 -1.33639,2.98505 1.81286,9.51389 11.96928,24.81399 6.2811,69.14564 -8.68888,67.71801 -3.52433,-0.33609 -3.16121,0.89851 0.87874,2.98765 z m -374.50201,3.18489 c 0,0.39732 -0.0689,0.39999 12,-0.46563 19.2504,-1.38068 49.44509,-2.56931 77.6,-3.05476 30,-0.51725 30,-0.51725 30.25564,-2.31725 0.3033,-2.13555 -11.97497,-2.34137 -60.62422,-1.01626 -51.78262,1.41047 -59.23142,2.27239 -59.23142,6.8539 z m 266.8,-0.44175 c 7.04,0.45712 13.61,1.04704 14.6,1.31092 1.51779,0.40457 1.8,0.16337 1.8,-1.53844 0,-2.38744 -0.60398,-2.50276 -20,-3.81872 -6.82,-0.46271 -17.08,-1.16184 -22.8,-1.55362 -15.33418,-1.0503 -96.42842,-2.77922 -99.05315,-2.1118 -5.97131,1.51838 -2.14128,3.30806 7.46273,3.48715 40.22176,0.75008 84.69328,1.99382 93.99042,2.62863 6.16,0.42061 16.96,1.13876 24,1.59588 z m 49.2,-0.73525 h -8e-5 c 5.94,0.88775 11.93798,1.81344 13.32885,2.05709 3.1122,0.54517 3.00518,0.72884 7.75978,-13.31773 23.64423,-69.85245 22.40908,-175.46193 -2.8186,-241.0006 -2.09689,-5.4475 -2.59831,-6.15576 -4.12841,-5.83149 -53.42287,11.32182 -245.20752,16.02069 -323.74162,7.93192 -4.4,-0.45319 -4.4,-0.45319 -4.50816,6.62349 -0.0595,3.89217 -0.506,9.77667 -0.99216,13.07667 -4.55032,30.88795 -4.58144,175.29402 -0.044,204.80001 0.43984,2.86 0.8772,8.57301 0.972,12.69557 0.1724,7.49556 0.1724,7.49556 7.7724,6.96002 94.92552,-6.68906 240.56103,-3.83479 306.4,6.00505 z m 34.85111,6.79875 c 6.73255,1.58298 7.63535,1.4269 4.10567,-0.70984 -6.68702,-4.04807 -7.79104,-10.3747 -4.07456,-23.34955 2.7562,-9.6224 5.84008,-23.14752 9.12042,-40 1.75417,-9.01187 3.99736,-27.5326 3.99736,-33.00384 0,-10.76868 1.76117,-12.49937 13.6,-13.36464 12.62279,-0.92258 19.2,-3.53409 19.2,-7.62348 0,-0.77808 0.87272,-3.3482 1.93938,-5.71137 2.44387,-5.41434 2.81136,-7.94059 1.26062,-8.66581 -0.66,-0.30865 -2.41876,-1.17311 -3.90835,-1.921 -3.54674,-1.78076 -3.45231,-2.00148 -3.61954,8.45991 -0.20458,12.79856 -0.0284,12.67052 -10.59363,7.70023 -8.35475,-3.9304 -8.35371,-3.92924 -8.08644,-9.07 0.2107,-4.05282 12.35273,-12.2119 16.76318,-11.26437 0.96429,0.20716 1.42583,-0.31848 1.6,-1.82224 0.17757,-1.53311 0.90376,-2.33306 2.64478,-2.9134 4.14383,-1.38128 4.56877,-1.88858 3.20858,-3.83052 -0.66472,-0.94901 -1.20858,-2.66263 -1.20858,-3.80803 0,-4.54561 -4.92071,-6.62024 -18.8,-7.92631 -12.68244,-1.19344 -13.76933,-2.25978 -13.92026,-13.657 -0.082,-6.19496 -2.42311,-24.55963 -4.4844,-35.17814 -3.40371,-17.5338 -5.37596,-25.8647 -9.24817,-39.06473 -3.22521,-10.99444 -1.80057,-17.98413 4.45283,-21.84682 3.37522,-2.08486 1.3029,-1.9646 -9.99228,0.57983 -11.27328,2.5395 -10.62768,2.08592 -8.85509,6.22122 0.81163,1.89345 2.92599,7.9129 4.69859,13.37657 22.2987,68.73117 20.67355,173.09221 -3.70716,238.05943 -2.44887,6.52548 -2.44887,6.52548 3.30353,7.85939 3.16383,0.73364 7.93541,1.84717 10.60352,2.47451 z m -592.098114,3.09632 c 6.891,4.12381 6.7806,4.20103 4.0077,-2.80402 -4.4101,-11.14106 -10.4859,-31.68615 -13.2345,-44.75169 -6.5598,-31.1827 -11.0411,-65.93732 -11.1191,-86.24722 0,-1.02642 -0.3625,-1.62752 -0.8071,-1.35279 -0.44,0.27194 -0.8,1.1533 -0.8,1.95859 0,4.70951 -5.5066,6.11276 -7.0824,1.80479 -0.6066,-1.65857 -0.7957,-0.10994 -0.8137,6.63663 -0.077,30.05956 8.7663,82.18663 18.7406,110.47211 3.0836,8.7446 4.1553,10.12263 11.1085,14.2836 z m 646.841724,4.39162 c 3.82094,1.16576 3.77522,1.18271 4.71611,-1.74733 0.96075,-2.99189 2.80017,-24.52358 2.85327,-33.4 0.0444,-7.41232 -1.76237,-8.49825 -3.32754,-2 -0.52989,2.2 -1.34891,4.63956 -1.82005,5.42125 -0.47113,0.78168 -1.57631,3.24714 -2.45594,5.47879 -2.22436,5.64325 -5.32085,9.49996 -7.62738,9.49996 -1.87069,0 -3.96017,-2.50635 -2.93998,-3.52655 0.2953,-0.2953 -0.25736,-0.74462 -1.22815,-0.99848 -0.97078,-0.25388 -1.76506,-0.9596 -1.76506,-1.56828 0,-1.71031 -1.43815,-1.30884 -2.48361,0.69331 -0.51694,0.99 -2.50961,3.49457 -4.42814,5.56573 -1.91854,2.07115 -3.49317,4.41115 -3.49917,5.2 -0.006,0.78884 -0.21554,2.19665 -0.46564,3.12846 -0.35013,1.30454 -0.0256,1.79746 1.41093,2.14323 4.27681,1.02939 20.47557,5.32131 23.06035,6.10991 z M 222.99908,186.87933 c 0.86584,2.27742 5.95776,2.51317 13.56984,0.62826 16.87688,-4.17907 16.92888,-4.2452 17.69704,-22.50779 0.83248,-19.79009 2.53264,-30.71106 5.96568,-38.3207 2.10384,-4.66346 1.90368,-4.81865 -7.03464,-5.45235 -6.95608,-0.49316 -12.90256,-1.40295 -32.55456,-4.98076 -3.04,-0.55347 -3.0372,-0.63604 -0.94016,27.75401 0.4388,5.94 1.19576,17.5857 1.68216,25.87933 0.4864,8.29363 1.21304,15.94363 1.61464,17 z M 286.16892,163.2 c 0,39.46667 0.0214,40 1.6,40 1.25096,0 1.6,-0.53333 1.6,-2.44458 0,-4.05347 2.33296,-38.59742 3.61696,-53.55542 1.1588,-13.5003 0.95176,-17.65186 -1.01984,-20.44637 -0.76488,-1.0842 -4.36112,-3.55363 -5.17512,-3.55363 -0.34208,0 -0.622,18 -0.622,40 z m -14.45,-0.76175 c -0.42584,8.16103 -0.67328,25.62103 -0.54976,38.8 0.12344,13.17896 0.3132,22.34175 0.4216,20.36175 0.53928,-9.84832 3.68664,-15.44673 9.56824,-17.01984 3.44016,-0.9201 5.822,-82.15378 2.40992,-82.19108 -0.55,-0.006 -1.8036,-0.22632 -2.78576,-0.48958 -3.96832,-1.06367 -7.78368,16.00009 -9.06424,40.53875 z m -6.78856,124.4929 c 1.7388,0.60329 3.40768,1.49534 3.70872,1.98234 0.30096,0.48699 0.74528,-28.94932 0.98728,-65.41402 0.41944,-63.1915 0.87656,-76.09814 3.02792,-85.49947 1.748,-7.63884 4.15216,-15.20309 5.00784,-15.7565 1.27248,-0.82297 0.46736,-1.25223 -2.93416,-1.56441 -4.09976,-0.37626 -6.30504,3.45685 -9.2748,16.12091 -5.01296,21.37696 -5.45536,148.41976 -0.5228,150.13115 z m 15.058,2.38213 c 8.20552,7.79527 9.07244,3.84472 9.06344,-41.30528 -0.009,-43.21918 -0.0116,-43.29897 -1.64576,-42.90847 -0.9004,0.21518 -2.99112,0.63663 -4.64592,0.93655 -1.65488,0.29992 -3.1864,0.83251 -3.40328,1.18352 -4.8264,7.80925 -4.29088,77.41737 0.63152,82.09368 z m 6.18056,43.48673 c 0,43.8621 -0.17352,42.45048 4.62888,37.64808 3.3208,-3.32083 3.576,-5.83364 2.19864,-21.64808 -1.31072,-15.04964 -3.62752,-49.16111 -3.62752,-53.40977 0,-2.0569 -0.32944,-2.59023 -1.6,-2.59023 -1.5784,0 -1.6,0.53333 -1.6,40 z m -16.93816,38.4 c 2.18224,4.42235 6.18072,6.52005 7.71032,4.04509 0.2872,-0.4648 1.5516,-0.84509 2.8096,-0.84509 5.17112,0 4.81824,3.02121 4.81824,-41.25476 0,-40.28357 0,-40.28357 -3.3264,-41.17928 -6.36304,-1.71338 -7.74944,-4.32007 -9.76824,-18.36596 -0.64136,-4.46226 -0.36376,50.14583 0.31728,62.4 0.92432,16.63344 2.02568,23.14319 6.12448,36.2 0.24168,0.77 0.11208,1.4 -0.28816,1.4 -0.40016,0 -1.33336,-1.89 -2.07368,-4.2 -3.8244,-11.9329 -4.89248,-20.85788 -5.84432,-48.8368 -0.47048,-13.82844 -0.67952,-15.63586 -1.64856,-14.2523 -0.61048,0.87148 -2.09592,1.69804 -3.30112,1.8368 -5.54416,0.63833 -2.05664,49.82519 4.47056,63.0523 z m -51.0412,4.6 c -0.0182,4.41653 0.48984,5.82281 1.67552,4.63721 0.63936,-0.6394 23.20104,-4.29887 32.29104,-5.23757 10.51128,-1.08547 9.7856,-0.51294 7.82576,-6.17359 -0.88088,-2.54433 -1.99296,-5.88605 -2.4712,-7.42605 -1.46856,-4.72845 -2.67016,-15.75708 -3.26864,-30 -0.75992,-18.08415 -1.44696,-19.03126 -16.18232,-22.30956 -16.55824,-3.68387 -15.72688,-5.06737 -17.49144,29.10956 -0.48848,9.46 -1.2188,20.62 -1.62304,24.8 -0.40432,4.18 -0.74448,9.85 -0.75568,12.6 z m -28.36776,7.43269 c 4.3556,2.69192 22.89536,0.88576 26.34792,-2.56683 0.17376,-0.17373 0.71272,-6.78461 1.19784,-14.69086 0.48504,-7.90625 1.40376,-21.42889 2.04168,-30.05031 0.63784,-8.62141 1.15968,-17.68798 1.15968,-20.14792 0,-9.3266 1.96056,-10.71705 12.56344,-8.91029 13.67632,2.33048 19.06224,4.97306 21.54728,10.57213 0.7548,1.70055 0.95976,-13.10489 0.96776,-69.43862 0.008,-69.6804 -0.0302,-71.51306 -1.43536,-68.35726 -2.27112,5.1004 -8.44024,7.95342 -21.3964,9.89506 -10.33112,1.54827 -12.24672,0.23028 -12.24672,-8.42613 0,-2.94859 -0.51976,-12.41495 -1.15504,-21.03636 C 218.7786,151.45389 217.85764,138.1 217.36716,130.4 c -1.04784,-16.45152 0.1624,-14.53673 -11.03408,-17.45789 -17.19432,-4.48601 -19.88344,-2.04468 -29.36304,26.65789 -2.99408,9.06541 -5.46368,18.396 -8.36384,31.6 -0.87618,3.98915 -3.38548,22.21244 -4.84678,35.2 -2.8244,25.10014 -1.5359,78.66865 2.5209,104.80001 5.28772,34.06096 16.21836,67.50676 23.54148,72.03269 z m 19.97184,0.72754 c -3.92328,0.87322 -1.17304,1.38182 3.97528,0.73517 2.64,-0.33159 8.22,-0.97895 12.4,-1.43856 14.47096,-1.59116 38.12448,-5.28754 41.11768,-6.42553 2.43824,-0.92703 2.54208,-1.62208 0.75768,-5.07104 -6.26312,-12.10556 -7.31552,-29.93587 -7.32752,-124.16028 -0.0124,-96.48826 0.70944,-107.50367 8.21408,-125.34163 0.44592,-1.05984 0.22296,-1.25232 -1.06144,-0.91643 -3.66928,0.95953 -6.77224,9.78662 -8.94904,25.45806 -2.34616,16.89088 -2.87792,151.39043 -0.7556,191.13837 1.01912,19.0861 4.33856,33.12072 8.63264,36.49845 1.98728,1.56319 1.98728,1.56319 -5.35672,1.56319 -9.85144,0 -29.46208,3.02253 -51.64704,7.96023 z m -7.22472,3.53562 c -12.9176,1.51052 -17.45848,-2.79411 -25.6292,-24.29585 -19.9694,-52.55082 -22.2284,-158.42588 -4.60008,-215.60001 10.24808,-33.23753 14.1456,-38.79957 27.18952,-38.80037 10.92208,-7.6e-4 38.1556,3.36744 65.03976,8.04404 2.86,0.4975 7.18,1.23726 9.6,1.64391 13.73568,2.30808 18.06704,4.33885 20.42984,9.57853 1.66224,3.68627 1.63944,4.21288 -2.212,51.13389 -1.43256,17.45284 -1.40544,119.40195 0.0368,138.00001 0.58,7.48 1.40832,18.1 1.84064,23.6 2.05848,26.18758 2.05472,26.27283 -1.31776,30.28086 -2.88048,3.42318 -6.9236,4.69066 -25.57752,8.01821 -18.18456,3.24383 -39.05632,6.1393 -52.4,7.2693 -5.5,0.46576 -11.08,0.97312 -12.4,1.12748 z m -19.63816,10.09616 c 4.01904,4.62183 32.36056,3.33379 70.83816,-3.21941 53.07248,-9.03887 57.7036,-12.34684 54.528,-38.94883 -5.11672,-42.86295 -4.9336,-189.57458 0.27088,-217.01771 2.32648,-12.26772 -1.1168,-21.21884 -9.90408,-25.74609 -5.40264,-2.78351 -11.38312,-4.32788 -32.0948,-8.28807 -5.72,-1.09369 -12.2,-2.33522 -14.4,-2.75896 -2.2,-0.42374 -5.98,-0.98614 -8.4,-1.24978 -2.42,-0.26365 -6.2,-0.802704 -8.4,-1.197896 -29.59064,-5.315536 -51.09584,-4.11076 -54.70752,3.064846 -29.63708,58.88206 -36.60268,167.15493 -15.99178,248.56989 3.95186,15.61018 14.37842,42.3269 18.26114,46.79201 z m -39.96184,2.03834 c 21.4449,1.8183 37.6,2.38934 37.6,1.32906 0,-0.48972 -1.83408,-4.95593 -4.07568,-9.92491 -6.06272,-13.43923 -5.92664,-13.09895 -9.36702,-23.4345 -25.6574,-77.07952 -21.3047,-196.78606 9.55246,-262.71146 2.1396,-4.5713 3.89024,-8.6213 3.89024,-9.000004 0,-0.902248 -18.2091,-0.836544 -28.4,0.102488 -4.4,0.405432 -12.32,1.109576 -17.6,1.564768 -16.8028,1.448568 -48.602304,5.817068 -53.872204,7.400758 -3.2004,0.96179 -3.6258,1.41907 -5.4364,5.84344 -1.0804,2.64 -2.3061,5.52 -2.7237,6.4 -2.3351,4.9203 -9.7787,31.27872 -11.886,42.08976 -0.4622,2.37064 -1.5698,7.78506 -2.4615,12.03206 -1.9231,9.16005 -2.608,13.50588 -6.4743,41.07818 -2.1843,15.57704 -1.7029,60.3916 0.8363,77.86931 0.426,2.93188 1.187,8.2107 1.6912,11.7307 3.5483,24.77283 9.5176,50.77645 16.3517,71.23207 6.7235,20.12426 4.2191,18.75559 42.374904,23.15825 5.28,0.60924 11.04,1.3204 12.8,1.58034 1.76,0.25995 9.5,1.00681 17.2,1.65969 z m 336.11311,2.45532 c 11.72222,0.13213 22.21295,0.46607 23.31273,0.7421 3.56542,0.89487 3.221,-5.44347 -0.43494,-8.00419 -4.7936,-3.35757 -73.83619,1.51287 -99.7909,7.03951 -6.33182,1.34826 4.0733,1.55731 33.2,0.66702 12.32,-0.37664 31.9909,-0.57658 43.71311,-0.44444 z m 293.09386,1.42485 v 7e-5 c 2.19617,0.30254 4.98121,0.74465 6.189,0.98246 2.56377,0.5048 2.11496,1.41086 7.82869,-15.80437 5.9371,-17.88825 6.99263,-15.78649 -10.02466,-19.96093 -24.24484,-5.9474 -25.83086,-9.8305 -25.94733,-63.52768 -0.12926,-59.59933 2.32611,-64.99841 34.74733,-76.40531 3.96,-1.39326 7.75182,-2.81626 8.42626,-3.16223 0.67444,-0.34596 2.46008,-0.90001 3.96809,-1.23122 6.58744,-1.44684 9.76714,-3.4338 9.28197,-5.80016 -0.24821,-1.2106 -0.82508,-7.06108 -1.28194,-13.00108 -1.94072,-25.23292 -7.07325,-55.63029 -13.13635,-77.80001 -0.69192,-2.53 -1.76839,-6.49 -2.39217,-8.8 -0.62378,-2.31 -2.23192,-7.44 -3.57364,-11.4 -5.38772,-15.901508 -5.85136,-16.824868 -8.02039,-15.973748 -0.97749,0.38356 -13.25259,2.767056 -14.27831,2.772656 -0.11356,6e-4 -0.76309,1.392208 -1.44339,3.092456 -1.95887,4.895716 -10.50308,6.618366 -18.6208,3.754276 -2.73761,-0.96596 -8.92933,-0.94248 -8.92933,0.0338 0,0.14857 1.27238,5.23148 2.82752,11.29532 9.5455,37.22019 11.43248,71.15321 4.97283,89.42517 -0.85845,2.42825 -6.47471,16.25334 -7.79973,19.2 -6.59348,14.66289 -7.38363,114.85545 -1.17664,149.20001 2.58532,14.30512 2.83283,16.53264 2.33329,21 -0.57873,5.17555 1.61793,6.02589 8.84273,3.42307 7.47581,-2.69326 15.0635,-1.1574 17.2653,3.49474 1.42324,3.00716 4.05495,4.38175 9.94167,5.19271 z m 10.65193,1.68171 h -2e-5 c 3.88568,3.88568 12.11349,-5.90183 16.80632,-19.99223 C 812.99925,345.07073 819.3047,276.99474 815.75065,211.2 812.14723,144.49137 798.26167,90.400002 784.7406,90.400002 c -2.6238,0 -2.67705,0.977888 -0.375,6.885136 1.18204,3.033172 2.27183,4.915512 2.42177,4.182972 0.28859,-1.40995 2.29743,-2.538116 3.3553,-1.884324 0.34615,0.213936 1.60185,3.545104 2.79042,7.402604 1.18858,3.85748 2.46608,7.91361 2.83891,9.01361 0.37282,1.1 1.43443,4.7 2.35913,8 0.9247,3.3 2.00671,7.08 2.40447,8.4 4.29448,14.25171 9.32109,43.323 11.20433,64.8 3.36696,38.39746 3.37868,44.72099 0.082,44.23714 -2.34699,-0.34446 -2.34699,-0.34446 -2.6,6.77945 -0.28667,8.07148 -0.33147,7.92573 2.14699,6.98342 3.13252,-1.19099 3.71474,6.10749 2.00652,25.15312 -0.43642,4.86578 -1.15502,13.16688 -1.5969,18.44688 -2.44504,29.21562 -7.96667,56.21928 -18.15754,88.8 -3.04132,9.72323 -3.6355,10.50229 -6.11723,8.02056 -1.03926,-1.03926 -1.25075,-1.01549 -1.77929,0.2 -1.63829,3.76751 -3.25859,9.00973 -2.89666,9.37167 z m -18.2589,-0.0941 c 8.91594,1.61256 15.71586,2.35107 14.99316,1.62836 -0.3178,-0.3178 -2.11127,-0.84723 -3.98549,-1.17651 -1.87422,-0.32928 -6.10767,-1.13657 -9.40767,-1.79397 -3.3,-0.6574 -9.06,-1.80408 -12.8,-2.54819 -3.74,-0.7441 -7.52,-1.63617 -8.4,-1.98237 -2.99128,-1.1768 -10.09258,-2.59954 -10.57368,-2.11844 -0.2635,0.26351 -0.8864,0.14108 -1.38421,-0.27206 -0.87454,-0.72581 -4.56757,-1.79487 -11.24211,-3.25438 -1.76,-0.38486 -5.9,-1.46361 -9.2,-2.39724 -3.3,-0.93362 -7.98,-2.18176 -10.4,-2.77364 -20.5107,-5.0165 -25.40683,-6.26293 -26.8,-6.82263 -0.88,-0.35353 -4.03,-1.30076 -7,-2.10493 -2.97,-0.80419 -5.4,-1.73664 -5.4,-2.07214 0,-0.797 -0.33981,-0.84419 6.83986,0.94998 7.0829,1.76998 7.15758,1.75209 8.76695,-2.09967 1.43093,-3.42469 1.20421,-3.86885 -2.61795,-5.12893 -1.64388,-0.54195 -5.67582,-2.35125 -8.95988,-4.02068 -7.04242,-3.57994 -6.82185,-3.68772 -6.82585,3.3354 -0.006,10.17319 2.84402,11.49876 48.39687,22.51171 23.26109,5.62365 39.8344,9.2166 56,12.14033 z m 43.2,7.36544 h 7e-5 c 0,0.58244 4.32466,0.26546 6.08519,-0.44603 5.81011,-2.34805 15.64872,-25.95748 20.17675,-48.41754 3.676,-18.23384 4.21074,-21.83335 7.36862,-49.6 4.92431,-43.29868 3.95034,-102.29916 -2.51581,-152.40001 -5.37922,-41.67917 -17.53504,-76.299566 -27.32572,-77.825006 -3.82075,-0.595288 -3.86396,-0.139448 -0.85562,9.025008 12.48614,38.037108 14.32427,45.790258 19.15614,80.799998 6.93664,50.26058 6.92371,99.94053 -0.039,149.60001 -3.18659,22.72732 -6.79296,41.78347 -9.23538,48.8 -0.38291,1.1 -1.48894,4.7 -2.45784,8 -0.9689,3.3 -3.69569,11.87861 -6.05952,19.06357 -2.36383,7.18496 -4.29788,13.21496 -4.29788,13.4 z m -25.2,-1.2318 c 7.81204,1.22668 20.23009,2.0664 21.8263,1.47592 1.08919,-0.40292 2.70365,-4.33464 6.08874,-14.828 6.48377,-20.09887 7.49518,-23.4666 10.89563,-36.27969 0.89187,-3.36061 2.92015,-14.40678 3.96615,-21.6 0.41588,-2.86 1.11195,-7.54 1.5468,-10.4 9.51121,-62.55468 8.40377,-115.49395 -3.91607,-187.20001 -1.50489,-8.75909 -7.5132,-29.48821 -15.53585,-53.599998 -2.25032,-6.763208 -8.22652,-7.066968 -36.4717,-1.8538 -7.32954,1.352808 -16.43588,3.82936 -11.2,3.045952 24.13117,-3.610592 28.01242,-3.040024 34.16846,5.023 16.12148,21.115476 28.5986,115.447306 24.20313,182.984856 -3.0654,47.10064 -5.88929,67.54224 -13.53814,98 -7.12056,28.35409 -20.07016,38.63794 -39.39957,31.28892 -1.06589,-0.40525 -4.07456,-0.94208 -6.68594,-1.19295 -7.52871,-0.72328 8.4017,2.67832 24.05206,5.1358 z m -396.56053,2.66823 c 11.6503,1.6815 51.73314,1.02176 54.96053,-0.90463 6.47913,-3.86728 17.62953,-6.42548 32.46749,-7.44889 23.64685,-1.63099 17.26704,-2.16981 -21.66749,-1.82999 -34.57572,0.30179 -68.60882,1.42567 -69.47752,2.29436 -1.72629,1.72628 0.99206,7.49585 3.71699,7.88915 z m 197.01036,2.37501 c 11.77915,0.83612 62.18872,0.63344 62.73609,-0.25224 1.34248,-2.17216 15.5391,-6.42012 21.4613,-6.42212 2.96344,-8.6e-4 2.08012,-1.31062 -1.2398,-1.83832 -1.43408,-0.22794 -4.04742,-0.77102 -5.80742,-1.20684 -8.55638,-2.11876 -69.70977,-1.50511 -77.32311,0.77591 -9.70686,2.90825 -9.60357,8.24966 0.17294,8.94361 z m 202.25792,1.33268 c 14.13415,1.95572 22.25464,2.06972 24.71424,0.34695 2.98193,-2.08863 2.10368,-2.41793 -6.63713,-2.48863 -19.81251,-0.16028 -35.48913,-3.30812 -110.78486,-22.24548 -37.37811,-9.40084 -56.22257,-13.36113 -76.2,-16.01396 -3.63003,-0.48204 -3.8,-0.41758 -3.8,1.44108 0,1.79546 0.38604,1.9876 5,2.4886 4.72248,0.51278 9.13426,1.26332 24.2,4.11696 8.87872,1.68174 11.79046,2.37876 55.2,13.21398 52.28009,13.04935 66.39175,16.10802 88.30775,19.1405 z m 28.37729,4.49635 c 2.61712,2.25116 8.61107,2.39881 25.31496,0.62361 34.02577,-3.61608 34.22115,-3.63873 54.8,-6.35475 15.85955,-2.09316 33.87177,-4.76288 48,-7.11441 3.96,-0.65912 10.44,-1.73662 14.4,-2.39445 3.96,-0.65783 11.16,-1.94331 16,-2.8566 4.84,-0.9133 10.6,-1.97526 12.8,-2.35991 5.44322,-0.95168 16.09848,-3.08429 19.99998,-4.0029 1.76,-0.41439 6.8,-1.54162 11.2,-2.50496 8.7127,-1.90756 24.2745,-5.78034 30,-7.46595 24.9153,-7.33511 36.2572,-11.45256 50.0186,-18.1583 15.6815,-7.64136 16.7901,-8.58773 17.9261,-15.30241 4.598,-27.17928 8.2746,-59.29644 10.5331,-92.01301 0.9798,-14.19342 0.5415,-27.01761 -1.7225,-50.40001 -0.4154,-4.29 -1.1127,-11.49 -1.5495,-16 -0.4367,-4.51 -1.1605,-10.9 -1.6084,-14.2 -0.4478,-3.3 -1.5352,-11.4 -2.4163,-18 -2.4581,-18.41111 -4.1676,-27.08505 -5.5486,-28.15416 -2.9204,-2.26084 -16.2633,-9.16489 -23.6325,-12.22817 -4.4,-1.82904 -8.72,-3.64859 -9.6,-4.04344 -12.8699,-5.77474 -57.3924,-17.55543 -89.19998,-23.602372 -21.14637,-4.020144 -34.1037,-6.3442 -44.4,-7.963688 -3.96,-0.622864 -10.8,-1.701288 -15.2,-2.396504 -35.73192,-5.645736 -97.43149,-12.911421 -112,-13.189017 -5.34034,-0.101757 -5.76171,4.969339 -0.94521,11.375385 5.54052,7.369 11.28825,18.544556 14.50463,28.201966 27.84739,83.61376 17.87697,265.50192 -16.71899,305.00075 -3.15957,3.60735 -3.15957,3.60735 -0.95539,5.5033 z m -388.55021,4.58011 c 21.48584,0.28754 49.26763,0.75376 61.73731,1.03603 24.2002,0.54782 24.91684,0.17704 20.82072,-10.77226 -0.38108,-1.01864 -0.69286,-2.72864 -0.69286,-3.8 0,-2.26695 -1.22617,-2.40852 -9.6,-1.10839 -13.79227,2.14139 -79.7508,5.64125 -82.97782,4.40293 -6.49068,-2.49071 -30.19808,-0.25249 -29.95393,2.82795 0.60169,7.59146 -3.62453,6.821 40.66658,7.41374 z m 147.17023,2.1505 v 2.2e-4 c 4.78221,0.23906 41.57451,0.52466 81.76064,0.63466 81.03587,0.22181 74.35481,0.81035 69.04874,-6.08254 -3.38723,-4.40021 -21.38837,-7.43237 -37.7431,-6.35754 -19.87876,1.3062 -98.75139,1.3007 -111.51521,-0.008 -10.28751,-1.05481 -11.98019,-0.6828 -11.23907,2.47008 0.22087,0.93966 0.53466,3.32847 0.69732,5.30847 0.29573,3.6 0.29573,3.6 8.99068,4.03465 z m -57.16759,0.56535 c 0.78661,2.6 0.78661,2.6 10.26891,2.6 9.4823,0 9.4823,0 5.63043,-8.2 -2.11853,-4.51 -5.18719,-12.34 -6.81927,-17.4 -4.54424,-14.08879 -3.57761,-12.8 -9.60039,-12.8 -5.97013,0 -6.00421,0.0679 -4.45334,8.86657 0.42009,2.38339 1.53404,8.83343 2.47543,14.33343 0.94139,5.5 2.06559,11.17 2.49823,12.6 z m 18.66253,-5.90315 c 4,8.10315 4,8.10315 14.99,8.20564 11.70499,0.10916 12.21766,-0.72028 4.51358,-7.30249 -1.03,-0.88 -0.48939,0.12973 1.20134,2.24385 4.15095,5.19041 3.17465,5.64842 -1.25247,0.58756 -4.04315,-4.62192 -11.37587,-16.20332 -16.66501,-26.32093 -3.74155,-7.15722 -14.9231,-11.85016 -13.2245,-5.55039 2.19427,8.13815 7.1199,21.4169 10.43706,28.13676 z m 505.19998,10.90315 c 0,1.95837 5.6046,0.48329 10.0279,-2.63927 15.5244,-10.95912 19.7211,-14.07172 25.7989,-19.13461 3.8353,-3.19483 11.0655,-9.86269 16.0673,-14.81746 5.0017,-4.95477 9.5649,-9.00866 10.1403,-9.00866 1.1003,0 11.8047,-12.02754 11.2226,-12.60969 -1.4102,-1.41023 -7.4191,2.66405 -15.657,10.61609 -16.319,15.75285 -54.0121,46.7936 -56.8219,46.7936 -0.4279,0 -0.7781,0.36 -0.7781,0.8 z m -192.91192,0.84309 c 6.8448,1.42316 54.83341,2.19679 66.91194,1.07868 1.32,-0.12219 13.92,-0.62164 28,-1.1099 23.74501,-0.82341 32.77658,-1.26345 65.99998,-3.2157 39.2691,-2.30748 34.0093,-0.21159 64.8,-25.82139 17.5836,-14.62492 40.8,-38.00345 40.8,-41.08482 0,-2.36037 -0.095,-2.35479 -4.2159,0.24637 -16.2168,10.23748 -52.9409,23.31982 -84.9841,30.27423 -2.64,0.57296 -8.22,1.80346 -12.4,2.73445 -10.4363,2.3244 -32.73934,6.71606 -44.79998,8.82148 -5.5,0.96012 -11.62,2.0694 -13.6,2.46507 -1.98,0.39565 -5.4,0.94145 -7.6,1.21288 -2.2,0.27142 -6.7,0.97785 -10,1.56982 -3.3,0.59198 -10.14,1.66191 -15.2,2.37763 -5.06,0.71572 -11.44947,1.65078 -14.19882,2.07792 -14.06748,2.18552 -50.10138,6.30869 -76.06561,8.70381 -4.10543,0.37871 -7.62639,0.85053 -7.82435,1.04849 -1.04635,1.04635 14.65783,6.6002 24.37684,8.62098 z m 205.71192,4.85691 c 0,0.385 0.09,0.66472 0.2,0.62162 0.11,-0.0431 2.36,-0.51966 5,-1.05902 19.6677,-4.01814 37.6917,-18.91166 55.1383,-45.56158 5.0896,-7.77455 12.8239,-22.70482 13.7282,-26.50102 1.4492,-6.08364 -12.1766,9.47965 -16.1094,18.4 -10.5133,23.84658 -37.1474,49.23805 -55.4972,52.90801 -1.3529,0.2706 -2.4599,0.80699 -2.4599,1.19199 z m -821.59998,1.50889 c 14.39592,1.17862 17.6,1.06376 17.6,-0.63088 0,-4.50993 -5.50504,-7.04164 -16.8,-7.7262 -4.18,-0.25333 -11.02,-0.80888 -15.2,-1.23453 -14.31536,-1.45777 -19.63056,-1.13933 -21.54192,1.29061 -1.35048,1.71679 -2.2856,5.00136 -1.45808,5.12103 0.45168,0.0653 28.86536,2.48121 37.4,3.17997 z m 573.3268,6.13536 v -7e-5 c 2.91886,4.56293 4.21244,4.70588 33.8732,3.74307 50.58048,-1.64187 64.02653,-2.10484 80,-2.75456 69.63785,-2.83247 109.43788,-5.45342 108.39658,-7.13822 -0.434,-0.70224 4.3563,-4.77071 5.6789,-4.82331 0.3985,-0.0158 1.8045,-0.93902 3.1245,-2.05154 2.7285,-2.29952 4.7909,-2.30451 -29.6,0.0718 -8.79998,0.60805 -21.39998,1.31959 -27.99998,1.58118 -6.6,0.2616 -18.48,0.82038 -26.4,1.24175 -28.36713,1.50922 -86.73123,2.46112 -95.6,1.55922 -12.80418,-1.3021 -22.54766,-4.04272 -34.07231,-9.5838 -6.69253,-3.21777 -23.22072,-4.86331 -26.13689,-2.60216 -1.36659,1.05962 -8.35613,3.22803 -12.58457,3.90418 -3.50128,0.55988 -3.50128,0.55988 2.52975,2.35326 10.08902,3.00005 12.74673,5.05077 18.79082,14.4992 z m -49.3268,4.80547 c 0,0.3343 22.29238,0.0225 36.96578,-0.51708 12.84164,-0.4722 13.206,-1.37472 4.34724,-10.76775 -4.72144,-5.00619 -37.31302,-3.64396 -37.31302,1.55957 0,0.65087 -0.9,3.04899 -2,5.32919 -1.1,2.28018 -2,4.25842 -2,4.39607 z m 268.39998,-0.23843 c -12.1683,4.75808 1.2395,3.58767 31.2,-2.72357 44.3049,-9.33289 91.7743,-61.32037 86.7785,-95.03791 -1.1067,-7.46901 -1.6833,-8.54356 -3.1321,-5.83653 -0.4454,0.8323 -2.4122,3.39041 -4.3705,5.68469 -2.017,2.36292 -3.3716,4.664 -3.1247,5.3076 1.1281,2.93968 -8.0833,24.04184 -14.9699,34.29443 -22.2964,33.19404 -40.3785,46.45801 -67.5813,49.5736 -2.64,0.30236 -6.7683,1.46958 -9.174,2.59381 -2.4056,1.12424 -5.2856,2.33307 -6.4,2.68629 -1.1143,0.35322 -5.266,1.90914 -9.226,3.45759 z m -478.00907,1.08871 c 1.58557,2.60004 1.58557,2.60004 10.99733,2.53684 10.75877,-0.0722 11.95035,-0.31254 10.20462,-2.05827 -3.69296,-3.69295 1.93432,-6.82644 15.60714,-8.69069 14.32206,-1.95277 44.08553,5.39109 35,8.63593 -3.10856,1.1102 9.38282,1.08941 95.47497,-0.15892 4.47496,-0.0649 4.47496,-0.0649 6.4,-5.76997 2.35526,-6.98014 3.31839,-7.66777 12.37772,-8.83721 7.09277,-0.91558 7.09277,-0.91558 4.05295,-1.968 -8.84658,-3.06276 -195.70564,-3.558 -195.70564,-0.51868 0,2.83818 3.51965,13.43253 5.59091,16.82897 z m -154.62773,2.87106 v 7e-5 c 25.90948,0.49475 42.45052,0.48509 121.32764,-0.0709 29.1116,-0.2052 31.06238,-0.30767 30.64386,-1.60967 -0.24584,-0.76478 -1.54671,-4.38662 -2.89083,-8.04851 -1.34411,-3.66189 -2.44385,-7.69922 -2.44385,-8.97185 0,-3.65262 -0.66845,-3.72294 -40.4,-4.25003 -41.65386,-0.55258 -100.92206,-1.67468 -156.4,-2.96104 -27.49992,-0.63768 -37.45648,-0.61552 -40.72072,0.0906 -2.37648,0.51405 -5.852,0.72476 -7.72352,0.46825 -6.1336,-0.8407 -8.40448,12.38229 -2.51128,14.62287 3.93256,1.49519 30.50808,1.96224 31.67456,0.55667 4.84488,-5.83772 45.3096,-3.7526 50.314,2.59265 1.53763,1.94961 10.53098,2.33785 69.16696,2.98594 28.49,0.3149 51.8,0.87659 51.8,1.24821 0,1.0074 -80.75283,0.82144 -102.1529,-0.23524 -16.74984,-0.82706 -18.82191,-0.78843 -21.32094,0.39742 -1.5224,0.72242 -3.32232,1.3135 -3.99984,1.3135 -0.67752,0 -1.41856,0.30198 -1.64664,0.67106 -0.22808,0.36909 12.04947,0.90909 27.2835,1.2 z m 480.23682,-0.63605 c 15.46014,3.17737 134.46948,1.88493 142.39998,-1.54647 2.86,-1.23748 6.46,-2.71305 8,-3.27906 16.9776,-6.23991 17.1498,-6.34523 11.1929,-6.84615 -2.8561,-0.24016 -5.3983,-0.14349 -5.6493,0.21483 -0.4843,0.69144 -9.3176,1.36001 -44.74358,3.38655 -41.90821,2.39735 -97.23219,4.63436 -147.6,5.96817 -22.4,0.59318 -22.4,0.59318 4,0.7311 20.21289,0.10558 27.80616,0.4269 32.4,1.37103 z M 32.390416,145.38635 c -2.3493,5.39944 -3.9413,5.59444 -3.377,0.41365 6.1037,-56.046286 21.487,-78.035241 58.6574,-83.845254 10.3611,-1.619522 45.710404,-1.416529 48.698104,0.279649 7.0178,3.984202 -12.5766,18.300599 -29.8,21.772855 -31.187204,6.287392 -49.113004,18.2864 -61.973804,41.48346 -1.375,2.48011 -4.2737,7.02929 -6.4416,10.10929 -2.1678,3.08 -4.7612,7.48386 -5.7631,9.78635 z m 93.378504,289.76939 c -57.238204,3.15544 -78.862604,-8.71012 -90.313404,-49.55573 -1.878,-6.69897 -3.4579,-13.60527 -4.0262,-17.6 -0.2818,-1.98 -0.8416,-5.76 -1.2442,-8.4 -2.0463,-13.41868 -1.4984,-16.44892 1.6996,-9.4 0.9482,2.09 3.9559,7.22 6.6837,11.4 2.7278,4.18 6.7174,10.3 8.8657,13.6 13.2178,20.30358 32.307,32.82073 55.534804,36.41541 19.43,3.00694 41.1371,17.89972 33.3429,22.87579 -0.079,0.0502 -4.8229,0.34921 -10.5429,0.66453 z m 83.2,22.1562 v -10e-6 c 9.4924,1.97801 10.11112,2.00312 55.2,2.2405 38.21208,0.20117 73.30568,-0.37062 61.6,-1.00367 -9.70616,-0.52491 -25.67568,-4.43081 -34.15048,-8.35267 -6.02008,-2.78587 -6.4704,-2.86482 -21.22584,-3.72117 -20.50192,-1.18986 -20.81888,-1.1804 -21.3964,0.63904 -1.21912,3.84115 -5.32384,3.88015 -42.42728,0.4031 -13.27512,-1.24404 -16.4,-2.21358 -16.4,-5.08829 0,-2.3128 -0.942,-2.58744 -12.72136,-3.70888 -26.15744,-2.4903 -38.13224,-4.18628 -37.06844,-5.25002 0.3868,-0.38681 5.2387,-0.14997 11.0399,0.53891 5.6925,0.67596 14.1299,1.60596 18.7499,2.06666 4.62,0.4607 10.87328,1.11255 13.89624,1.44855 5.49616,0.61092 5.49616,0.61092 6.53008,-1.85653 2.56656,-6.1249 5.21696,-7.04594 17.57368,-6.1071 38.81192,2.94887 40.13376,3.30832 41.74232,11.35134 0.54952,2.74738 -2.34376,2.17831 17.45768,3.43378 19.6972,1.24887 17.23032,1.73806 16.246,-3.22154 -2.8024,-14.11962 6.59728,-18.59983 74.554,-35.53507 56.22467,-14.01154 89.51419,-17.5576 164.8,-17.5546 58.62251,0.002 94.17442,3.01289 127.2,10.77143 2.86,0.67189 7.54,1.74427 10.4,2.38308 5.4707,1.22191 71.58566,17.84119 81.2,20.41118 3.08,0.82331 6.5,1.73786 7.6,2.03231 1.1,0.29446 6.68,1.80031 12.4,3.34632 8.99414,2.43098 11.157,2.7445 16,2.31935 5.13984,-0.4512 16.75602,-3.45644 14.01164,-3.62496 -5.43149,-0.33354 -28.13354,-4.01039 -37.21164,-6.02684 -2.64,-0.5864 -7.68,-1.69108 -11.2,-2.45483 -3.52,-0.76375 -9.82,-2.27289 -14,-3.35366 -4.18,-1.08077 -9.58,-2.45026 -12,-3.04331 -6.02398,-1.47625 -18.96979,-4.95104 -28.4,-7.62286 -20.46578,-5.79848 -37.87248,-9.89572 -52.8,-12.42825 -14.91582,-2.53053 -22.25618,-3.57786 -41.6,-5.93549 -9.57814,-1.1674 -36.62348,-3.22466 -51.81678,-3.94156 -12.72033,-0.60022 -15.1364,-0.97966 -13.9286,-2.18746 0.52354,-0.52355 24.73701,0.63622 44.14538,2.11446 25.98345,1.97904 62.04518,7.076 80.4,11.36372 1.98,0.46254 5.76,1.29268 8.4,1.84478 4.5917,0.96025 16.84698,4.19498 28.8,7.60166 23.993,6.83812 53.55392,14.06042 71.6,17.49326 18.6459,3.54694 32.74626,5.27714 33.86764,4.15576 1.33226,-1.33226 -0.73682,-2.4213 -4.66764,-2.4567 -4.19584,-0.0378 -30.94363,-4.45439 -38.8,-6.40663 -1.54,-0.38267 -5.5,-1.28457 -8.8,-2.00421 -3.3,-0.71963 -24.9,-5.97096 -48,-11.66962 -23.1,-5.69866 -43.44,-10.7098 -45.2,-11.13586 -44.11038,-10.6782 -128.85551,-15.6829 -231.85947,-13.69268 -87.19397,1.68473 -109.31333,2.99028 -114.00133,6.72867 -5.422,4.32368 -17.68888,8.57916 -30.5392,10.59432 -1.98,0.31049 -4.14,1.00487 -4.8,1.54305 -0.66,0.5382 -3.54,1.4128 -6.4,1.94358 -2.86,0.53078 -8.08,1.5109 -11.6,2.17802 -15.11896,2.86545 -29.1048,4.92386 -46.4,6.8291 -9.39112,1.03452 -53.239,0.4469 -61.2,-0.82016 -2.86,-0.4552 -9.16,-1.21924 -14,-1.69787 -20.7672,-2.05371 -38.380104,-4.49837 -46.800004,-6.49583 -7.1214,-1.68944 -16,-5.8335 -16,-7.46803 0,-0.52556 -1.89,-2.26049 -4.2,-3.85539 -18.6237,-12.85846 -33.7297,-38.46009 -37.3703,-63.33518 -7.5791,-51.78469 -7.3483,-100.61686 0.7248,-153.3376 2.1369,-13.9551 10.1647,-29.58752 23.0321,-44.85015 4.6977,-5.57228 15.3915,-15.0432 16.9855,-15.0432 0.3527,0 0.8065,-0.6319 1.0085,-1.40423 1.6189,-6.19068 22.286,-10.335366 81.419404,-16.32831 12.051,-1.221312 51.07872,-1.24232 60.8,-0.03272 18.75104,2.333152 24.44496,3.211888 44.8,6.913952 6.75472,1.228512 12.60168,2.695898 17.2,4.316588 1.32,0.46524 6.99136,1.92009 12.60296,3.233 11.1064,2.59852 17.36488,5.11474 20.81728,8.3696 5.30928,5.00561 143.78434,9.01882 213.37976,6.18406 88.89935,-3.62105 99.23433,-5.03293 176.8,-24.152976 48.09687,-11.855952 42.67894,-10.550608 54,-13.010248 17.70669,-3.846995 32.19135,-6.37394 41.83832,-7.298964 6.09238,-0.584185 7.64744,-2.15357 2.62208,-2.646244 -3.81609,-0.37412 -30.54786,3.641767 -41.2604,6.198508 -1.76,0.420056 -6.26,1.481372 -10,2.358484 -8.1131,1.902688 -27.7638,6.839112 -35.6,8.943024 -3.08,0.826928 -6.5,1.74216 -7.6,2.03384 -1.1,0.29168 -5.06,1.410264 -8.8,2.485736 -8.09207,2.326968 -27.08636,7.25436 -31.6,8.1975 -31.23255,6.52614 -53.8,9.80719 -82.8,12.03819 -42.34147,3.25737 -47.2,3.46116 -47.2,1.97979 0,-0.92833 1.2159,-1.17857 5.72652,-1.17857 23.47093,0 80.36098,-6.13919 110.67348,-11.94313 8.93031,-1.70989 32.28812,-7.438276 43.2,-10.594588 14.6345,-4.233096 42.7642,-11.513232 56.8,-14.70019 13.29854,-3.019558 30.77724,-6.112025 42.4,-7.501739 4.77742,-0.571228 4.78871,-0.578768 2.4,-1.602595 -7.21285,-3.091503 -15.7232,-3.533094 -24.09438,-1.250225 -13.78855,3.760216 -32.68321,8.664297 -63.50562,16.482789 -61.27814,15.543978 -73.40353,17.876068 -111.87718,21.517438 -48.93975,4.63195 -138.38452,2.06814 -184.12282,-5.27761 -31.10961,-4.996332 -101.9336,-23.669411 -115.32104,-30.404961 -6.5916,-3.316376 -9.05912,-8.971576 -7.09576,-16.262823 1.13344,-4.209272 1.52784,-3.962894 -5.1832,-3.237885 -3.08,0.332739 -10.73,0.863829 -17,1.1802 -10.93048,0.55153 -11.40296,0.645646 -11.40296,2.28527 -0.0119,6.813717 -5.25232,9.261669 -22.79704,10.649285 -33.35472,2.638025 -33.2788,2.646201 -36.16576,-3.897142 -1.4144,-3.205753 -1.4144,-3.205753 -5.82432,-2.714717 -2.42544,0.270069 -8.36992,0.85857 -13.20992,1.307779 -4.84,0.449208 -10.96,1.148204 -13.6,1.553322 -8.7202,1.338142 -19.3764,1.817042 -17.7634,0.798294 1.4767,-0.932528 11.8189,-2.292005 33.10268,-4.351291 15.51424,-1.501058 15.97872,-1.625385 16.53896,-4.426872 0.68872,-3.443412 5.72376,-4.422504 30.92176,-6.012888 4.18,-0.263823 10.70968,-0.84247 14.5104,-1.285883 7.71144,-0.89966 11.76968,0.07653 13.46176,3.238109 0.8356,1.561422 1.37648,1.651538 7.4644,1.243696 26.48144,-1.774059 29.75728,-2.166762 33.38072,-4.001644 7.216,-3.654129 24.72304,-8.273387 31.98272,-8.438697 1.54,-0.03507 3.52,-0.383773 4.4,-0.774904 3.14152,-1.396295 -111.43536,-0.403886 -116.02088,1.004917 -4.07472,1.251849 -12.20184,2.459743 -36.77912,5.46631 -47.8034,5.847842 -79.996204,11.72383 -103.481104,18.887881 -19.2581,5.874672 -28.6728,14.455796 -36.4362,33.209992 -22.1595,53.531792 -22.8694,241.139502 -1.1407,301.454512 9.9441,27.60287 23.7586,35.48621 79.858004,45.57159 5.06,0.90967 11.18,2.01736 13.6,2.46152 2.42,0.44417 6.92,1.16194 10,1.59505 3.08,0.4331 9.2,1.30909 13.6,1.94662 9.9305,1.43888 37.40832,4.91395 44.4,5.61518 2.86,0.28684 9.52,1.42173 14.8,2.52197 z m 511.64354,20.48807 c -1.0022,2.74253 -0.77742,2.73515 5.3772,-0.17647 10.57836,-5.0044 23.18499,-16.89182 23.35598,-22.02353 0.2244,-6.73431 -20.65774,1.05801 -23.58257,8.8 -1.82849,4.84 -3.55451,9.34 -3.83561,10 -0.28108,0.66 -0.87284,2.19 -1.315,3.4 z m 1.5294,6.51949 c -4.86821,1.30831 -13.38417,1.62906 -15.06004,0.56722 -0.95904,-0.60765 2.31284,-12.08028 6.64111,-23.28671 0.73614,-1.90595 -355.02937,-1.68087 -373.15401,0.23609 -26.77912,2.8323 -119.01448,2.23361 -132.8,-0.86199 -4.18,-0.93864 -11.02,-2.09477 -15.2,-2.56919 -25.6532,-2.91151 -42.0923,-5.13663 -65.6,-8.87928 -10.3911,-1.65437 -12.5148,-2.03807 -26.2902,-4.75006 -47.940404,-9.43804 -60.583104,-17.71798 -71.221604,-46.64421 -17.9309,-48.75392 -21.2221003,-197.87111 -6.0928,-276.04879 6.4329,-33.240623 17.3325,-50.724824 36.6298,-58.758296 18.7594,-7.809594 68.256504,-17.365631 120.974804,-23.355734 3.96,-0.449954 10.44,-1.188886 14.4,-1.64207 3.96,-0.453184 9.18,-1.31633 11.6,-1.918102 10.69096,-2.658465 19.04464,-2.953849 73.6,-2.602405 48.8512,0.314698 54.7628,0.493089 62,1.870949 9.31712,1.773846 -2.12608,1.696569 156.8,1.058873 61.6,-0.247174 135.04,-0.243843 163.2,0.0074 28.16,0.251242 51.32579,0.391012 51.47954,0.310602 0.15374,-0.08041 -1.53609,-5.637412 -3.7552,-12.348888 -4.60397,-13.924336 -4.6495,-13.22421 0.90529,-13.918236 12.26531,-1.5324488 28.82096,8.233781 36.63879,21.613328 3.31253,5.669104 0.58676,5.416098 69.13158,6.416801 40.69541,0.594123 41.86964,0.567923 54,-1.204876 20.7999,-3.039813 140.69868,-1.557214 161.59998,1.998253 45.5517,7.748679 69.4033,21.156311 91.7758,51.589823 17.7841,24.191778 19.9174,31.427688 23.8211,80.799998 0.6436,8.14 1.5202,16.42 1.9479,18.4 1.0925,5.05704 3.2099,29.06835 4.5502,51.6 0.2929,4.92247 0.1129,13.73505 -0.4083,19.99997 -2.8427,34.16678 -3.4231,40.35458 -4.1269,44 -0.4247,2.2 -1.3015,10.66 -1.9483,18.8 -3.812,47.97117 -5.4003,54.06501 -19.5934,75.17303 -20.5006,30.48882 -45.4111,47.35264 -80.8181,54.71202 -22.6342,4.70454 -30.4005,5.1937 -96.35951,6.06921 -56.76723,0.75351 -69.10606,0.47474 -86.04047,-1.94388 -9.53822,-1.36224 -29.64134,-1.34238 -92.05053,0.091 -22.85052,0.52481 -22.85052,0.52481 -26.20392,5.93651 -6.09196,9.83118 -15.04107,16.81257 -24.97261,19.48164 z"
       id="path172" />
    <path
       style="fill:#000000;stroke-width:0.8"
       id="path170"
       d="" />
  </g>
</svg>
